<?xml version="1.0" standalone="no"?>
<!DOCTYPE svg PUBLIC "-//W3C//DTD SVG 20010904//EN"
 "http://www.w3.org/TR/2001/REC-SVG-20010904/DTD/svg10.dtd">
<svg version="1.0" xmlns="http://www.w3.org/2000/svg"
 width="1280.000000pt" height="417.000000pt" viewBox="0 0 1280.000000 417.000000"
 preserveAspectRatio="xMidYMid meet">

<g transform="translate(0.000000,417.000000) scale(0.100000,-0.100000)"
fill="#000000" stroke="none">
<path d="M200 3492 l0 -278 690 -865 c380 -475 696 -868 704 -873 9 -6 65 33
189 131 l176 140 -85 109 c-102 131 -292 413 -364 542 -117 210 -197 417 -241
622 -19 85 -23 138 -23 280 -1 205 16 299 79 453 7 16 -24 17 -559 17 l-566 0
0 -278z"/>
<path d="M1770 3714 c-41 -111 -44 -322 -5 -490 54 -237 198 -532 384 -784
l54 -74 22 119 c61 332 176 527 411 701 295 219 663 261 1027 119 16 -7 17 8
17 229 l0 236 -944 0 -945 0 -21 -56z"/>
<path d="M4624 3705 c91 -54 151 -102 182 -142 l29 -38 3 -1460 c2 -1015 0
-1471 -8 -1497 -13 -45 -88 -129 -178 -200 -37 -28 -71 -55 -77 -60 -5 -5 355
-7 815 -5 929 4 849 -3 1120 86 445 147 721 398 811 736 27 104 30 311 4 430
-74 352 -327 593 -723 691 l-111 27 55 23 c301 122 483 418 461 750 -11 160
-63 279 -171 393 -136 142 -345 243 -590 286 -75 13 -215 15 -884 15 l-796 0
58 -35z m1569 -343 c173 -86 279 -249 293 -452 8 -108 -7 -186 -51 -276 -59
-121 -182 -235 -303 -283 -50 -20 -72 -21 -392 -21 l-340 0 0 535 0 536 363
-3 362 -3 68 -33z m114 -1353 c148 -52 244 -110 338 -204 128 -128 178 -245
178 -415 0 -183 -56 -313 -193 -450 -92 -92 -198 -161 -329 -214 l-76 -31
-412 -3 -413 -3 0 681 0 681 403 -3 402 -3 102 -36z"/>
<path d="M7766 3702 c81 -53 158 -125 178 -166 15 -31 16 -168 16 -1493 0
-1421 -1 -1459 -20 -1501 -19 -42 -118 -149 -195 -210 l-40 -32 460 0 460 0
-45 37 c-77 63 -175 166 -193 205 -16 34 -17 119 -15 1217 l3 1180 180 -237
c533 -702 1199 -1559 1456 -1874 223 -274 467 -509 675 -649 40 -27 76 -49 79
-49 3 0 5 762 5 1693 0 1655 1 1693 19 1724 25 41 106 100 206 152 l79 41
-469 0 c-258 0 -465 -4 -459 -8 5 -5 38 -29 74 -54 36 -25 82 -62 102 -82 74
-72 68 32 66 -1258 l-3 -1163 -226 300 c-125 165 -317 417 -428 560 -294 380
-711 970 -1086 1538 l-110 167 -414 0 -414 0 59 -38z"/>
<path d="M11683 3706 c77 -47 145 -103 179 -150 l28 -39 0 -1469 c0 -1423 -1
-1470 -19 -1506 -27 -53 -88 -119 -170 -182 l-70 -55 265 -3 c146 -1 383 -1
526 0 l261 3 -55 37 c-83 55 -184 153 -207 202 -21 42 -21 48 -21 1500 0 1341
1 1461 17 1493 20 42 101 109 198 163 l70 40 -529 0 -530 0 57 -34z"/>
<path d="M2934 2991 c-211 -34 -386 -176 -469 -379 -36 -88 -46 -178 -34 -295
17 -167 72 -305 177 -447 69 -93 290 -311 396 -392 222 -167 420 -205 612
-118 l64 29 0 655 0 654 -37 30 c-59 46 -202 136 -271 171 -151 76 -317 111
-438 92z"/>
<path d="M200 1402 c0 -864 3 -1082 12 -1076 12 7 988 813 1016 839 10 9 -90
141 -494 651 -278 351 -512 646 -520 654 -12 12 -14 -136 -14 -1068z"/>
<path d="M1951 1389 c-150 -124 -179 -153 -172 -167 18 -32 225 -275 314 -369
204 -213 448 -345 609 -330 32 3 58 4 58 3 0 -1 -54 -49 -120 -106 -66 -56
-120 -104 -120 -106 0 -2 261 -4 580 -4 l580 0 0 421 0 422 -45 -42 c-72 -66
-157 -116 -252 -147 -82 -27 -98 -29 -243 -28 -139 0 -164 3 -245 28 -227 69
-473 245 -696 498 l-67 76 -181 -149z"/>
<path d="M1018 632 l-378 -317 325 -3 c179 -1 472 -1 651 0 l326 3 -262 318
c-144 174 -268 317 -274 316 -6 0 -181 -143 -388 -317z"/>
</g>
</svg>
