<?xml version="1.0" standalone="no"?>
<!DOCTYPE svg PUBLIC "-//W3C//DTD SVG 20010904//EN"
 "http://www.w3.org/TR/2001/REC-SVG-20010904/DTD/svg10.dtd">
<svg version="1.0" xmlns="http://www.w3.org/2000/svg"
 width="299.000000pt" height="169.000000pt" viewBox="0 0 299.000000 169.000000"
 preserveAspectRatio="xMidYMid meet">

<g transform="translate(0.000000,169.000000) scale(0.100000,-0.100000)"
fill="#000000" stroke="none">
<path d="M1999 1501 c18 -12 5 -31 -22 -31 -11 0 17 -18 62 -40 125 -60 215
-125 317 -225 93 -92 183 -217 230 -320 22 -48 29 -55 55 -55 16 0 29 5 29 10
0 21 -90 187 -138 255 -106 150 -299 310 -465 384 -67 30 -96 39 -68 22z"/>
<path d="M138 1004 c-36 -11 -52 -22 -64 -46 -18 -35 -9 -48 39 -48 33 0 35
13 5 27 -22 10 -20 11 16 18 69 14 234 -1 330 -30 252 -74 456 -248 456 -390
0 -82 -47 -134 -152 -166 -59 -19 -207 -26 -242 -13 -13 5 -16 25 -16 115 0
126 -9 118 115 94 98 -18 113 -30 84 -61 l-21 -22 22 -7 c26 -8 73 22 78 49
15 74 -75 125 -226 128 l-50 1 -7 56 c-7 57 -29 111 -44 111 -14 0 -20 -26
-28 -102 -3 -38 -11 -71 -17 -73 -6 -1 -43 -12 -82 -24 -145 -43 -161 -89 -65
-182 32 -32 82 -69 110 -83 36 -19 51 -32 51 -47 0 -11 5 -29 10 -40 14 -24
60 -26 66 -1 5 15 20 17 137 17 115 0 140 4 191 24 156 62 216 196 149 332
-32 66 -155 190 -235 237 -82 49 -203 99 -293 122 -94 24 -246 26 -317 4z
m292 -525 c0 -58 -4 -89 -11 -89 -23 0 -128 63 -159 95 -27 28 -31 37 -21 49
16 18 161 49 184 38 4 -2 7 -43 7 -93z"/>
<path d="M1069 940 c-43 -23 -86 -71 -95 -107 -4 -15 0 -39 10 -59 9 -19 16
-41 16 -49 0 -20 20 -29 33 -16 6 6 31 11 56 11 118 0 250 137 184 191 -65 52
-140 63 -204 29z m-5 -82 c-42 -47 -54 -56 -54 -38 0 16 65 80 80 80 7 0 -5
-19 -26 -42z m184 9 c6 -29 -48 -73 -106 -87 -29 -7 -56 -10 -59 -6 -10 10 26
55 69 87 46 33 91 36 96 6z"/>
<path d="M2634 737 c3 -13 9 -56 12 -95 l7 -72 -92 0 -92 0 3 -27 3 -28 93 -3
93 -3 -7 -89 -7 -90 30 0 c29 0 30 2 37 53 3 28 6 69 6 90 l0 37 91 0 90 0 -3
33 -3 32 -91 3 -91 3 -7 75 c-9 97 -12 104 -48 104 -27 0 -29 -3 -24 -23z"/>
<path d="M1670 697 c0 -13 5 -37 10 -53 18 -51 38 -174 30 -179 -5 -3 -25 22
-45 55 -95 156 -128 158 -155 11 -15 -81 -13 -157 6 -175 34 -35 54 -4 54 86
0 88 12 102 40 47 36 -71 71 -118 91 -124 112 -36 101 285 -12 345 -16 9 -19
7 -19 -13z"/>
<path d="M2151 643 c-55 -67 -73 -117 -71 -202 2 -61 -3 -91 -25 -150 -36 -99
-38 -171 -5 -206 13 -14 28 -25 34 -25 7 0 19 39 29 86 10 47 27 110 38 140
20 53 21 54 59 54 105 0 209 162 167 262 -28 67 -78 58 -157 -29 -25 -26 -55
-61 -67 -78 -20 -27 -22 -28 -23 -8 0 12 16 51 35 87 53 101 45 141 -14 69z
m199 -84 c0 -52 -81 -139 -129 -139 -16 0 8 44 59 108 43 55 70 67 70 31z"/>
<path d="M1245 655 c-55 -14 -95 -52 -95 -89 0 -36 17 -43 122 -55 152 -17
187 -44 106 -81 -74 -34 -208 -20 -184 18 10 16 37 15 81 -4 38 -15 89 -12
101 8 11 17 -10 28 -73 39 -49 9 -67 8 -96 -5 -31 -12 -37 -20 -37 -44 0 -73
141 -127 233 -88 52 22 69 47 65 101 -4 67 -30 84 -144 97 -49 5 -96 12 -104
15 -34 10 25 25 123 30 107 6 137 14 137 38 0 33 -142 45 -235 20z"/>
<path d="M1895 659 c-96 -14 -108 -26 -56 -56 25 -15 27 -20 19 -39 -6 -12
-19 -24 -29 -27 -13 -4 -17 -14 -17 -38 1 -19 -2 -55 -7 -81 -7 -42 -5 -49 18
-72 34 -34 69 -33 144 4 65 33 82 55 60 77 -12 12 -25 12 -77 3 -34 -6 -64 -9
-67 -6 -3 3 -3 16 1 29 6 27 30 37 94 37 38 0 42 2 42 25 0 23 -3 25 -50 25
-50 0 -55 4 -44 34 4 11 19 16 49 16 99 0 126 19 85 60 -22 22 -60 24 -165 9z"/>
<path d="M1070 640 c-15 -27 -26 -212 -16 -263 8 -42 39 -58 64 -34 13 14 14
34 6 152 -8 101 -14 139 -26 151 -15 15 -17 14 -28 -6z"/>
</g>
</svg>
